<svg xmlns="http://www.w3.org/2000/svg" viewBox="0 0 960 640" role="img" aria-labelledby="equipmentTitle equipmentDesc">
  <title id="equipmentTitle">Restoration equipment detail with meter, hose, and documentation</title>
  <desc id="equipmentDesc">A close-up vector scene showing a moisture meter, extraction hose, protected flooring, tagged readings, and a field documentation clipboard.</desc>
  <defs>
    <linearGradient id="equipmentBg" x1="92" y1="58" x2="882" y2="584" gradientUnits="userSpaceOnUse">
      <stop stop-color="#fff7ed"/>
      <stop offset=".48" stop-color="#f8fbff"/>
      <stop offset="1" stop-color="#dbeafe"/>
    </linearGradient>
    <linearGradient id="equipmentBlue" x1="0" y1="0" x2="1" y2="1">
      <stop stop-color="#38bdf8"/>
      <stop offset="1" stop-color="#0b63ce"/>
    </linearGradient>
    <filter id="equipmentShadow" x="-25%" y="-25%" width="150%" height="160%" color-interpolation-filters="sRGB">
      <feDropShadow dx="0" dy="18" stdDeviation="20" flood-color="#06172e" flood-opacity=".2"/>
    </filter>
  </defs>
  <rect width="960" height="640" rx="44" fill="url(#equipmentBg)"/>
  <path d="M0 502c114-60 205-60 319 0s205 60 319 0 205-60 319 0" fill="none" stroke="#0b63ce" stroke-opacity=".11" stroke-width="18"/>
  <path d="M72 486h816v82a28 28 0 0 1-28 28H100a28 28 0 0 1-28-28v-82Z" fill="#d6e3ef"/>
  <path d="M94 504h772" stroke="#94a3b8" stroke-opacity=".55" stroke-width="3"/>

  <g transform="translate(90 96)" filter="url(#equipmentShadow)">
    <path d="M44 0h230c24 0 44 20 44 44v344c0 24-20 44-44 44H44c-24 0-44-20-44-44V44C0 20 20 0 44 0Z" fill="#10233f"/>
    <path d="M36 36h246v190H36z" rx="18" fill="#e0f2fe"/>
    <path d="M58 58h90v90H58z" rx="16" fill="url(#equipmentBlue)"/>
    <path d="M183 68h62M183 96h42M183 124h70" stroke="#0b63ce" stroke-width="10" stroke-linecap="round" opacity=".72"/>
    <path d="M84 105c12 14 28 14 40 0" stroke="#fff" stroke-width="8" stroke-linecap="round"/>
    <path d="M62 260h196M62 306h196M62 352h136" stroke="#38bdf8" stroke-width="13" stroke-linecap="round" opacity=".88"/>
    <circle cx="236" cy="352" r="18" fill="#f97316"/>
  </g>

  <g transform="translate(398 116)" filter="url(#equipmentShadow)">
    <path d="M94 0h128c18 0 33 15 33 33v254c0 18-15 33-33 33H94c-18 0-33-15-33-33V33C61 15 76 0 94 0Z" fill="#0f172a"/>
    <path d="M88 34h140v96H88z" rx="14" fill="#dff7ff"/>
    <path d="M116 72h50M116 98h78" stroke="#0b63ce" stroke-width="10" stroke-linecap="round"/>
    <path d="M102 164h112M102 196h112M102 228h72" stroke="#f97316" stroke-width="11" stroke-linecap="round"/>
    <path d="M86 320c0 74-50 92-86 110" stroke="#0f172a" stroke-width="38" stroke-linecap="round" fill="none"/>
    <path d="M225 320c42 34 86 70 132 116" stroke="#0f172a" stroke-width="38" stroke-linecap="round" fill="none"/>
    <path d="M86 320c0 74-50 92-86 110M225 320c42 34 86 70 132 116" stroke="#38bdf8" stroke-width="12" stroke-linecap="round" fill="none" opacity=".5"/>
  </g>

  <g transform="translate(660 84)" filter="url(#equipmentShadow)">
    <path d="M28 18h176c15 0 28 13 28 28v332c0 15-13 28-28 28H28c-15 0-28-13-28-28V46c0-15 13-28 28-28Z" fill="#fff"/>
    <path d="M74 0h84c13 0 24 11 24 24v22H50V24C50 11 61 0 74 0Z" fill="#334155"/>
    <path d="M34 78h164M34 122h124M34 166h164M34 210h92" stroke="#cbd5e1" stroke-width="9" stroke-linecap="round"/>
    <path d="M34 278h60v60H34zM112 278h60v60h-60z" fill="#e0f2fe" stroke="#bfdbfe" stroke-width="4"/>
    <path d="m126 316 16 14 32-40" stroke="#f97316" stroke-width="9" stroke-linecap="round" stroke-linejoin="round" fill="none"/>
    <path d="M36 250h152" stroke="#0b63ce" stroke-width="10" stroke-linecap="round"/>
  </g>

  <g fill="none" stroke-linecap="round">
    <path d="M62 526c122-43 219-43 341 0s219 43 341 0" stroke="#0b63ce" stroke-opacity=".18" stroke-width="11"/>
    <path d="M500 520c-48-34-98-40-150-18" stroke="#f97316" stroke-opacity=".62" stroke-width="9" stroke-dasharray="1 18"/>
  </g>

  <g transform="translate(342 418)">
    <path d="M0 28h262c20 0 38 8 52 21l58 53" stroke="#0f172a" stroke-width="48" stroke-linecap="round" fill="none"/>
    <path d="M0 28h262c20 0 38 8 52 21l58 53" stroke="#334155" stroke-width="28" stroke-linecap="round" fill="none"/>
    <path d="M28 0h74l22 28-22 28H28L6 28 28 0Z" fill="#f97316"/>
    <path d="M42 28h42" stroke="#fff" stroke-width="8" stroke-linecap="round"/>
  </g>
</svg>
