<svg xmlns="http://www.w3.org/2000/svg" viewBox="0 0 960 640" role="img" aria-labelledby="vanTitle vanDesc">
  <title id="vanTitle">Restoration response van at a protected jobsite</title>
  <desc id="vanDesc">A vector scene with a generic restoration van, safety cones, floor protection, hose routing, and a home silhouette.</desc>
  <defs>
    <linearGradient id="vanSky" x1="120" y1="48" x2="840" y2="548" gradientUnits="userSpaceOnUse">
      <stop stop-color="#e0f2fe"/>
      <stop offset="1" stop-color="#f8fbff"/>
    </linearGradient>
    <linearGradient id="vanBody" x1="150" y1="248" x2="784" y2="448" gradientUnits="userSpaceOnUse">
      <stop stop-color="#ffffff"/>
      <stop offset="1" stop-color="#dbeafe"/>
    </linearGradient>
    <linearGradient id="vanBlue" x1="0" y1="0" x2="1" y2="1">
      <stop stop-color="#38bdf8"/>
      <stop offset="1" stop-color="#0b63ce"/>
    </linearGradient>
    <filter id="vanShadow" x="-18%" y="-18%" width="140%" height="150%" color-interpolation-filters="sRGB">
      <feDropShadow dx="0" dy="18" stdDeviation="18" flood-color="#06172e" flood-opacity=".22"/>
    </filter>
  </defs>
  <rect width="960" height="640" rx="44" fill="#06172e"/>
  <rect x="64" y="56" width="832" height="520" rx="34" fill="url(#vanSky)"/>
  <path d="M64 440h832v102a34 34 0 0 1-34 34H98a34 34 0 0 1-34-34V440Z" fill="#d6e3ef"/>
  <path d="M92 458h776" stroke="#94a3b8" stroke-opacity=".55" stroke-width="3"/>

  <g opacity=".85">
    <path d="M612 220 718 138l106 82v178H612V220Z" fill="#fff" stroke="#cbd5e1" stroke-width="5"/>
    <path d="m584 234 134-103 134 103" fill="none" stroke="#0f172a" stroke-width="16" stroke-linecap="round" stroke-linejoin="round"/>
    <path d="M654 260h58v58h-58zM748 260h46v138h-46z" fill="#e0f2fe" stroke="#bfdbfe" stroke-width="5"/>
    <path d="M632 398h210" stroke="#0f172a" stroke-opacity=".22" stroke-width="8" stroke-linecap="round"/>
  </g>

  <g filter="url(#vanShadow)">
    <path d="M138 298h396c46 0 86 30 100 74l18 58h-570v-76c0-31 25-56 56-56Z" fill="url(#vanBody)" stroke="#10233f" stroke-width="6"/>
    <path d="M470 258h118c26 0 50 14 63 37l45 79h-196l-30-116Z" fill="url(#vanBlue)" stroke="#10233f" stroke-width="6"/>
    <path d="M504 284h78c15 0 29 8 36 21l24 43H522l-18-64Z" fill="#dff7ff"/>
    <path d="M146 318h300v112H146z" fill="#fff" opacity=".64"/>
    <path d="M184 352h180M184 386h116" stroke="#0b63ce" stroke-width="15" stroke-linecap="round"/>
    <path d="M392 346h42v42h-42z" fill="#f97316"/>
    <circle cx="198" cy="440" r="62" fill="#0f172a"/>
    <circle cx="198" cy="440" r="30" fill="#e2e8f0"/>
    <circle cx="548" cy="440" r="62" fill="#0f172a"/>
    <circle cx="548" cy="440" r="30" fill="#e2e8f0"/>
    <path d="M88 430h610" stroke="#0f172a" stroke-width="13" stroke-linecap="round"/>
  </g>

  <g transform="translate(682 418)">
    <path d="M38 0h42l24 90H14L38 0Z" fill="#f97316"/>
    <path d="M30 31h60M22 61h76" stroke="#fff" stroke-width="10"/>
    <path d="M0 90h118" stroke="#0f172a" stroke-width="12" stroke-linecap="round"/>
  </g>
  <g transform="translate(764 436) scale(.78)">
    <path d="M38 0h42l24 90H14L38 0Z" fill="#f59e0b"/>
    <path d="M30 31h60M22 61h76" stroke="#fff" stroke-width="10"/>
    <path d="M0 90h118" stroke="#0f172a" stroke-width="12" stroke-linecap="round"/>
  </g>

  <g fill="none" stroke-linecap="round">
    <path d="M620 494c-70-62-146-78-228-48-75 27-146 21-213-18" stroke="#0f172a" stroke-width="32"/>
    <path d="M620 494c-70-62-146-78-228-48-75 27-146 21-213-18" stroke="#38bdf8" stroke-opacity=".5" stroke-width="10"/>
    <path d="M114 520c112-40 202-40 314 0s202 40 314 0" stroke="#0b63ce" stroke-opacity=".17" stroke-width="11"/>
  </g>

  <g opacity=".78">
    <path d="M146 172h190" stroke="#0b63ce" stroke-width="12" stroke-linecap="round"/>
    <path d="M146 206h122" stroke="#f97316" stroke-width="12" stroke-linecap="round"/>
    <path d="M146 240h248" stroke="#0f172a" stroke-opacity=".18" stroke-width="12" stroke-linecap="round"/>
  </g>
</svg>
